<mxfile host="Electron" agent="Mozilla/5.0 (Windows NT 10.0; Win64; x64) AppleWebKit/537.36 (KHTML, like Gecko) draw.io/27.0.5 Chrome/134.0.6998.205 Electron/35.3.0 Safari/537.36" version="27.0.5">
  <diagram name="Page-1" id="Et8AX_8vklbn_TlAS2_c">
    <mxGraphModel dx="1375" dy="898" grid="0" gridSize="10" guides="1" tooltips="1" connect="1" arrows="1" fold="1" page="0" pageScale="1" pageWidth="827" pageHeight="1169" math="0" shadow="0">
      <root>
        <mxCell id="0" />
        <mxCell id="1" parent="0" />
        <mxCell id="RoV68EHWxxJNEofhdYat-1" value="" style="rounded=0;whiteSpace=wrap;html=1;fillColor=none;dashed=1;strokeColor=light-dark(#696969, #ededed);" parent="1" vertex="1">
          <mxGeometry x="20" y="130" width="160" height="590" as="geometry" />
        </mxCell>
        <mxCell id="RoV68EHWxxJNEofhdYat-2" value="Sources" style="rounded=0;whiteSpace=wrap;html=1;fontSize=24;strokeColor=none;" parent="1" vertex="1">
          <mxGeometry x="41" y="110" width="120" height="30" as="geometry" />
        </mxCell>
        <mxCell id="RoV68EHWxxJNEofhdYat-3" value="" style="rounded=0;whiteSpace=wrap;html=1;fillColor=none;dashed=1;strokeColor=light-dark(#696969, #ededed);" parent="1" vertex="1">
          <mxGeometry x="260" y="120" width="710" height="600" as="geometry" />
        </mxCell>
        <mxCell id="RoV68EHWxxJNEofhdYat-4" value="Data Warehouse" style="rounded=0;whiteSpace=wrap;html=1;fontSize=24;strokeColor=none;" parent="1" vertex="1">
          <mxGeometry x="480" y="100" width="190" height="30" as="geometry" />
        </mxCell>
        <mxCell id="RoV68EHWxxJNEofhdYat-5" value="" style="rounded=0;whiteSpace=wrap;html=1;fillColor=none;dashed=1;strokeColor=light-dark(#696969, #ededed);" parent="1" vertex="1">
          <mxGeometry x="1061" y="120" width="160" height="600" as="geometry" />
        </mxCell>
        <mxCell id="RoV68EHWxxJNEofhdYat-7" value="Consume" style="rounded=0;whiteSpace=wrap;html=1;fontSize=24;strokeColor=none;" parent="1" vertex="1">
          <mxGeometry x="1081" y="110" width="120" height="30" as="geometry" />
        </mxCell>
        <mxCell id="RoV68EHWxxJNEofhdYat-8" value="Bronze Layer" style="rounded=0;whiteSpace=wrap;html=1;fillColor=#ffe6cc;strokeColor=#d79b00;fontSize=20;" parent="1" vertex="1">
          <mxGeometry x="280" y="160" width="200" height="30" as="geometry" />
        </mxCell>
        <mxCell id="RoV68EHWxxJNEofhdYat-9" value="" style="rounded=0;whiteSpace=wrap;html=1;fillColor=none;strokeColor=#d79b00;fontSize=20;" parent="1" vertex="1">
          <mxGeometry x="280" y="200" width="200" height="480" as="geometry" />
        </mxCell>
        <mxCell id="RoV68EHWxxJNEofhdYat-10" value="Silver Layer" style="rounded=0;whiteSpace=wrap;html=1;fillColor=#f5f5f5;strokeColor=#666666;fontSize=20;fontColor=#333333;" parent="1" vertex="1">
          <mxGeometry x="520" y="160" width="200" height="30" as="geometry" />
        </mxCell>
        <mxCell id="RoV68EHWxxJNEofhdYat-11" value="" style="rounded=0;whiteSpace=wrap;html=1;fillColor=none;strokeColor=#666666;fontSize=20;fontColor=#333333;" parent="1" vertex="1">
          <mxGeometry x="520" y="200" width="200" height="480" as="geometry" />
        </mxCell>
        <mxCell id="RoV68EHWxxJNEofhdYat-12" value="Gold Layer" style="rounded=0;whiteSpace=wrap;html=1;fillColor=#fff2cc;strokeColor=#d6b656;fontSize=20;" parent="1" vertex="1">
          <mxGeometry x="760" y="160" width="200" height="30" as="geometry" />
        </mxCell>
        <mxCell id="RoV68EHWxxJNEofhdYat-13" value="" style="rounded=0;whiteSpace=wrap;html=1;fillColor=none;strokeColor=#d6b656;fontSize=20;" parent="1" vertex="1">
          <mxGeometry x="760" y="200" width="200" height="480" as="geometry" />
        </mxCell>
        <mxCell id="RoV68EHWxxJNEofhdYat-25" value="" style="endArrow=none;html=1;rounded=0;" parent="1" edge="1">
          <mxGeometry width="50" height="50" relative="1" as="geometry">
            <mxPoint x="54" y="440" as="sourcePoint" />
            <mxPoint x="154" y="440" as="targetPoint" />
            <Array as="points">
              <mxPoint x="84" y="440" />
            </Array>
          </mxGeometry>
        </mxCell>
        <mxCell id="RoV68EHWxxJNEofhdYat-26" value="Object type : CSV" style="text;html=1;align=center;verticalAlign=middle;whiteSpace=wrap;rounded=0;" parent="1" vertex="1">
          <mxGeometry x="50" y="460" width="100" height="30" as="geometry" />
        </mxCell>
        <mxCell id="RoV68EHWxxJNEofhdYat-27" value="" style="html=1;verticalLabelPosition=bottom;align=center;labelBackgroundColor=#ffffff;verticalAlign=top;strokeWidth=2;strokeColor=#d79b00;shadow=0;dashed=0;shape=mxgraph.ios7.icons.data;fillColor=#ffe6cc;" parent="1" vertex="1">
          <mxGeometry x="350" y="268" width="40" height="50" as="geometry" />
        </mxCell>
        <mxCell id="RoV68EHWxxJNEofhdYat-28" value="" style="html=1;verticalLabelPosition=bottom;align=center;labelBackgroundColor=#ffffff;verticalAlign=top;strokeWidth=2;strokeColor=#666666;shadow=0;dashed=0;shape=mxgraph.ios7.icons.data;fillColor=#f5f5f5;fontColor=#333333;" parent="1" vertex="1">
          <mxGeometry x="580" y="264" width="40" height="50" as="geometry" />
        </mxCell>
        <mxCell id="RoV68EHWxxJNEofhdYat-29" value="" style="html=1;verticalLabelPosition=bottom;align=center;labelBackgroundColor=#ffffff;verticalAlign=top;strokeWidth=2;strokeColor=#d6b656;shadow=0;dashed=0;shape=mxgraph.ios7.icons.data;fillColor=#fff2cc;" parent="1" vertex="1">
          <mxGeometry x="810" y="268" width="40" height="50" as="geometry" />
        </mxCell>
        <mxCell id="RoV68EHWxxJNEofhdYat-31" value="" style="shape=mxgraph.arrows.arrow_right;html=1;verticalLabelPosition=bottom;verticalAlign=top;strokeWidth=2;strokeColor=#6c8ebf;fillColor=#dae8fc;" parent="1" vertex="1">
          <mxGeometry x="190" y="330" width="60" height="30" as="geometry" />
        </mxCell>
        <mxCell id="RoV68EHWxxJNEofhdYat-32" value="" style="shape=mxgraph.arrows.arrow_right;html=1;verticalLabelPosition=bottom;verticalAlign=top;strokeWidth=2;strokeColor=#6c8ebf;fillColor=#dae8fc;" parent="1" vertex="1">
          <mxGeometry x="990" y="330" width="60" height="30" as="geometry" />
        </mxCell>
        <mxCell id="IPA-tmx41wnEnyupP7oS-1" value="Raw Data" style="text;html=1;align=center;verticalAlign=middle;whiteSpace=wrap;rounded=0;" parent="1" vertex="1">
          <mxGeometry x="340" y="321" width="60" height="30" as="geometry" />
        </mxCell>
        <mxCell id="IPA-tmx41wnEnyupP7oS-2" value="Cleaned Data" style="text;html=1;align=center;verticalAlign=middle;whiteSpace=wrap;rounded=0;" parent="1" vertex="1">
          <mxGeometry x="570" y="318" width="60" height="30" as="geometry" />
        </mxCell>
        <mxCell id="IPA-tmx41wnEnyupP7oS-3" value="Business-Ready&amp;nbsp; Data" style="text;html=1;align=center;verticalAlign=middle;whiteSpace=wrap;rounded=0;" parent="1" vertex="1">
          <mxGeometry x="795" y="321" width="90" height="30" as="geometry" />
        </mxCell>
        <mxCell id="IPA-tmx41wnEnyupP7oS-5" value="" style="endArrow=none;html=1;rounded=0;" parent="1" edge="1">
          <mxGeometry width="50" height="50" relative="1" as="geometry">
            <mxPoint x="540" y="360" as="sourcePoint" />
            <mxPoint x="700" y="360" as="targetPoint" />
            <Array as="points">
              <mxPoint x="570" y="360" />
            </Array>
          </mxGeometry>
        </mxCell>
        <mxCell id="IPA-tmx41wnEnyupP7oS-7" value="Load:" style="text;html=1;align=left;verticalAlign=middle;whiteSpace=wrap;rounded=0;" parent="1" vertex="1">
          <mxGeometry x="290" y="399" width="60" height="30" as="geometry" />
        </mxCell>
        <mxCell id="IPA-tmx41wnEnyupP7oS-8" value="Load:" style="text;html=1;align=left;verticalAlign=middle;whiteSpace=wrap;rounded=0;" parent="1" vertex="1">
          <mxGeometry x="530" y="399" width="60" height="30" as="geometry" />
        </mxCell>
        <mxCell id="IPA-tmx41wnEnyupP7oS-10" value="Bulk Load" style="text;html=1;align=left;verticalAlign=middle;whiteSpace=wrap;rounded=0;" parent="1" vertex="1">
          <mxGeometry x="290" y="429" width="150" height="71" as="geometry" />
        </mxCell>
        <mxCell id="IPA-tmx41wnEnyupP7oS-9" value="Load:" style="text;html=1;align=left;verticalAlign=middle;whiteSpace=wrap;rounded=0;" parent="1" vertex="1">
          <mxGeometry x="770" y="399" width="60" height="30" as="geometry" />
        </mxCell>
        <mxCell id="IPA-tmx41wnEnyupP7oS-16" value="Object Type: SQL Table" style="text;html=1;align=center;verticalAlign=middle;whiteSpace=wrap;rounded=0;" parent="1" vertex="1">
          <mxGeometry x="550" y="369" width="140" height="30" as="geometry" />
        </mxCell>
        <mxCell id="IPA-tmx41wnEnyupP7oS-17" value="Object Type: SQL Table" style="text;html=1;align=center;verticalAlign=middle;whiteSpace=wrap;rounded=0;" parent="1" vertex="1">
          <mxGeometry x="790" y="369" width="140" height="30" as="geometry" />
        </mxCell>
        <mxCell id="IPA-tmx41wnEnyupP7oS-19" value="&lt;ul&gt;&lt;li&gt;Batch Process&lt;/li&gt;&lt;/ul&gt;" style="text;html=1;align=left;verticalAlign=middle;whiteSpace=wrap;rounded=0;" parent="1" vertex="1">
          <mxGeometry x="530" y="419" width="150" height="71" as="geometry" />
        </mxCell>
        <mxCell id="IPA-tmx41wnEnyupP7oS-20" value="&lt;ul&gt;&lt;li&gt;Denormalisation&lt;/li&gt;&lt;/ul&gt;" style="text;html=1;align=left;verticalAlign=middle;whiteSpace=wrap;rounded=0;" parent="1" vertex="1">
          <mxGeometry x="765" y="519.5" width="150" height="71" as="geometry" />
        </mxCell>
        <mxCell id="IPA-tmx41wnEnyupP7oS-21" value="Transformations:" style="text;html=1;align=left;verticalAlign=middle;whiteSpace=wrap;rounded=0;" parent="1" vertex="1">
          <mxGeometry x="767" y="489.5" width="60" height="30" as="geometry" />
        </mxCell>
        <mxCell id="IPA-tmx41wnEnyupP7oS-22" value="" style="endArrow=none;html=1;rounded=0;" parent="1" edge="1">
          <mxGeometry width="50" height="50" relative="1" as="geometry">
            <mxPoint x="780" y="360" as="sourcePoint" />
            <mxPoint x="940" y="360" as="targetPoint" />
            <Array as="points">
              <mxPoint x="810" y="360" />
            </Array>
          </mxGeometry>
        </mxCell>
        <mxCell id="IPA-tmx41wnEnyupP7oS-14" value="Object Type: SQL Table" style="text;html=1;align=center;verticalAlign=middle;whiteSpace=wrap;rounded=0;" parent="1" vertex="1">
          <mxGeometry x="300" y="370" width="140" height="30" as="geometry" />
        </mxCell>
        <mxCell id="IPA-tmx41wnEnyupP7oS-25" value="" style="endArrow=none;html=1;rounded=0;" parent="1" edge="1">
          <mxGeometry width="50" height="50" relative="1" as="geometry">
            <mxPoint x="300" y="359.5" as="sourcePoint" />
            <mxPoint x="460" y="359.5" as="targetPoint" />
            <Array as="points">
              <mxPoint x="330" y="359.5" />
            </Array>
          </mxGeometry>
        </mxCell>
        <mxCell id="IPA-tmx41wnEnyupP7oS-27" value="" style="shape=mxgraph.arrows.arrow_right;html=1;verticalLabelPosition=bottom;verticalAlign=top;strokeWidth=2;strokeColor=#6c8ebf;fillColor=#dae8fc;" parent="1" vertex="1">
          <mxGeometry x="482" y="321" width="40" height="30" as="geometry" />
        </mxCell>
        <mxCell id="IPA-tmx41wnEnyupP7oS-28" value="" style="shape=mxgraph.arrows.arrow_right;html=1;verticalLabelPosition=bottom;verticalAlign=top;strokeWidth=2;strokeColor=#6c8ebf;fillColor=#dae8fc;" parent="1" vertex="1">
          <mxGeometry x="720" y="321" width="40" height="30" as="geometry" />
        </mxCell>
        <mxCell id="IPA-tmx41wnEnyupP7oS-29" value="No Transformations" style="text;html=1;align=left;verticalAlign=middle;whiteSpace=wrap;rounded=0;" parent="1" vertex="1">
          <mxGeometry x="290" y="500" width="120" height="30" as="geometry" />
        </mxCell>
        <mxCell id="IPA-tmx41wnEnyupP7oS-30" value="Transformations" style="text;html=1;align=left;verticalAlign=middle;whiteSpace=wrap;rounded=0;" parent="1" vertex="1">
          <mxGeometry x="540" y="489.5" width="120" height="30" as="geometry" />
        </mxCell>
        <mxCell id="IPA-tmx41wnEnyupP7oS-31" value="&lt;ul&gt;&lt;li&gt;Normalisation&lt;/li&gt;&lt;li&gt;Validation&lt;/li&gt;&lt;li&gt;Enrichment&lt;/li&gt;&lt;/ul&gt;" style="text;html=1;align=left;verticalAlign=middle;whiteSpace=wrap;rounded=0;" parent="1" vertex="1">
          <mxGeometry x="540" y="509" width="150" height="71" as="geometry" />
        </mxCell>
        <mxCell id="IPA-tmx41wnEnyupP7oS-32" value="Added Ingestion DateTime" style="text;html=1;align=left;verticalAlign=middle;whiteSpace=wrap;rounded=0;" parent="1" vertex="1">
          <mxGeometry x="290" y="540" width="150" height="30" as="geometry" />
        </mxCell>
        <mxCell id="IPA-tmx41wnEnyupP7oS-35" value="" style="shape=image;verticalLabelPosition=bottom;labelBackgroundColor=default;verticalAlign=top;aspect=fixed;imageAspect=0;image=data:image/png,iVBORw0KGgoAAAANSUhEUgAAADAAAAAwCAYAAABXAvmHAAAACXBIWXMAAAsTAAALEwEAmpwYAAAB4UlEQVR4nO2ZT0vCYBzHd3JuXgWdGNsDbfNPpkVFr6EOFQihdakuHtLqbVivI6JEpO65ga8i6GAUQiFk1w6/2LOCsE0nPnMbPV/4HvYctu/neb4b2zOGoaKioqIiLdDDc6CxDdDYD9BZ8NQaztCETkidJHzf8+D6H5A+tLnkeABj5r0Oq9v62gmA97XRbVdh4KBCPgiq2/t/A7w0eagUBUirEiCEiDqtSnC4LcDDZcQdgF6Lh6WcSDw4GvJiRoTnJk8e4Hg3ji9wsCXA6y1HvBpvdxwc7Qj4GpVinDxAYcGc/VGzM617LR5fI5cRyQPI82bvP+/Drt6k6LtKvgeoV6OQTUlwXo0GE0CRzfOpshRMgN9PHqAABAHsuh0YAMWm24EBQDbBAg1Qt6hVoAAUi1oFCgA5HINZAzithm8BFIfV8AXA+rL5Nvp4FSES1mqs24jg45W8C2+jp+UYPnl5I+EawP5mAh/XSi58Dzw1eFgrmKvgFgBCCFbzIl4J4gA/EGd7cdcATkox6N6M/mCaCmDYVjfxNGPgwEQBjMdnNiXCRS1KZAxmDeCFmUBvLersu5MVaPogKFhaYxvjAToh1bfb61pIHguAIdpc0tjKNnaDfRB8YP5scRieioqKioqZQF9B5i/nSg3K5wAAAABJRU5ErkJggg==;" parent="1" vertex="1">
          <mxGeometry x="1110" y="268" width="62" height="62" as="geometry" />
        </mxCell>
        <mxCell id="IPA-tmx41wnEnyupP7oS-36" value="Power BI" style="text;html=1;align=center;verticalAlign=middle;whiteSpace=wrap;rounded=0;" parent="1" vertex="1">
          <mxGeometry x="1066" y="340" width="140" height="30" as="geometry" />
        </mxCell>
        <mxCell id="4Qgzolmji68EaxjDJ9os-3" value="Data Model : Curated tables for analytics (Power BI consumes directly)." style="text;html=1;align=left;verticalAlign=middle;whiteSpace=wrap;rounded=0;" parent="1" vertex="1">
          <mxGeometry x="780" y="600" width="170" height="50" as="geometry" />
        </mxCell>
        <mxCell id="4Qgzolmji68EaxjDJ9os-4" value="&lt;strong data-end=&quot;538&quot; data-start=&quot;526&quot;&gt;Content:&lt;/strong&gt; Raw data extracted directly from CSV with ingestion date added" style="text;html=1;align=left;verticalAlign=middle;whiteSpace=wrap;rounded=0;" parent="1" vertex="1">
          <mxGeometry x="290" y="582.25" width="150" height="65.5" as="geometry" />
        </mxCell>
        <mxCell id="4Qgzolmji68EaxjDJ9os-5" value="&lt;strong data-end=&quot;953&quot; data-start=&quot;941&quot;&gt;Content:&lt;/strong&gt; Clean and validated data, ready for integration." style="text;html=1;align=left;verticalAlign=middle;whiteSpace=wrap;rounded=0;" parent="1" vertex="1">
          <mxGeometry x="530" y="610" width="170" height="50" as="geometry" />
        </mxCell>
        <mxCell id="62ftLlVk0tzgC2y62F6R-1" value="CSV" style="rounded=1;whiteSpace=wrap;html=1;fillColor=#fff2cc;strokeColor=#d6b656;" vertex="1" parent="1">
          <mxGeometry x="41" y="315" width="120" height="60" as="geometry" />
        </mxCell>
        <mxCell id="62ftLlVk0tzgC2y62F6R-3" value="&lt;ul&gt;&lt;li&gt;Batch Process&lt;/li&gt;&lt;/ul&gt;" style="text;html=1;align=left;verticalAlign=middle;whiteSpace=wrap;rounded=0;" vertex="1" parent="1">
          <mxGeometry x="790" y="419" width="150" height="71" as="geometry" />
        </mxCell>
      </root>
    </mxGraphModel>
  </diagram>
</mxfile>
